<svg width="89" height="46" fill="none" xmlns="http://www.w3.org/2000/svg">
  <path d="M.78125 46V.3125H11.6562v36.3437h11.9063V46H.78125Zm49.43755 0h-22V.3125h22v9.21875h-11.125v8.24995h10.3124V27H39.0938v9.6562h11.125V46ZM88.6562.3125 77 46H64.3438L52.8125.3125h11.4063l4.5937 22.5313c.2083 1 .4375 2.2291.6875 3.6874.2708 1.4584.5104 2.9063.7188 4.3438.2083 1.4375.3541 2.6146.4374 3.5312.125-.9166.2917-2.0833.5-3.5.2292-1.4374.4688-2.875.7188-4.3124.2708-1.4584.5104-2.6876.7188-3.6876L77.25.3125h11.4062Z" fill="#28242D"/>
</svg>